PathFileType	4	(X/Y/Z)	s10c0401.trc
DataRate	CameraRate	NumFrames	NumMarkers	Units	OrigDataRate	OrigDataStartFrame	OrigNumFrames
200	200	4	50	mm	200	1250	2000
Frame#	Time	racr			lacr			c7			jug			rlel			rdr			llel			ldr			s2			lic			ric			lasi			rasi			rpsi			lpsi			rgt			lgt			rth1			rth2			rth3			rth4			rlfc			rmfc			rsh1			rsh2			rsh3			rsh4			rlmal			rmmal			rcal			rtoe			rmt5			lth1			lth2			lth4			lth3			llfc			lmfc			llmal			lmmal			lcal			lmt5			lsh1			lsh2			lsh3			lsh4			ltoe			SBIKE			LBIKE			RBIKE			
		X1	Y1	Z1	X2	Y2	Z2	X3	Y3	Z3	X4	Y4	Z4	X5	Y5	Z5	X6	Y6	Z6	X7	Y7	Z7	X8	Y8	Z8	X9	Y9	Z9	X10	Y10	Z10	X11	Y11	Z11	X12	Y12	Z12	X13	Y13	Z13	X14	Y14	Z14	X15	Y15	Z15	X16	Y16	Z16	X17	Y17	Z17	X18	Y18	Z18	X19	Y19	Z19	X20	Y20	Z20	X21	Y21	Z21	X22	Y22	Z22	X23	Y23	Z23	X24	Y24	Z24	X25	Y25	Z25	X26	Y26	Z26	X27	Y27	Z27	X28	Y28	Z28	X29	Y29	Z29	X30	Y30	Z30	X31	Y31	Z31	X32	Y32	Z32	X33	Y33	Z33	X34	Y34	Z34	X35	Y35	Z35	X36	Y36	Z36	X37	Y37	Z37	X38	Y38	Z38	X39	Y39	Z39	X40	Y40	Z40	X41	Y41	Z41	X42	Y42	Z42	X43	Y43	Z43	X44	Y44	Z44	X45	Y45	Z45	X46	Y46	Z46	X47	Y47	Z47	X48	Y48	Z48	X49	Y49	Z49	X50	Y50	Z50	
1250	6.2500	628.665698	1266.107119	-26.498627	589.151704	1319.444429	-374.671197	620.199837	1338.922573	-202.236918	602.459251	1195.680709	-213.257409	476.396074	1050.312236	63.680162	616.513619	912.493315	-29.620680	491.841019	1082.152767	-493.043548	619.215222	913.079595	-431.327956	93.497978	1157.144491	-152.390152	230.190713	1174.818017	-332.821143	295.475909	1142.865517	-40.344778	250.530875	1083.524387	-313.735825	282.531244	1054.555656	-64.446954	148.102824	1201.102585	-100.001305	136.315388	1221.381921	-211.130894	189.705605	1028.786049	7.031214	120.640774	1054.814121	-366.794579	243.234541	897.079634	7.372161	292.594802	829.689498	-23.294406	300.001600	746.230959	-41.393564	323.890762	846.647536	-35.906228	345.046373	655.063018	-75.540898	312.890893	652.961256	-183.916842	286.024276	556.959037	-32.344611	282.277964	469.290285	-46.458393	237.998946	394.910651	-46.187554	308.708350	464.577392	-73.975544	203.186590	298.532922	-56.839341	219.952700	307.728381	-141.254968	144.675533	286.535885	-101.981426	377.397251	215.931760	-106.477284	293.394178	208.219007	-41.200771	201.422908	949.944079	-400.587143	275.513786	905.300902	-397.393157	301.258544	929.487749	-386.938848	318.285975	827.949380	-403.501406	384.876876	738.219754	-402.189302	385.028967	720.534711	-281.151864	43.897747	569.757945	-381.258238	59.816968	557.434693	-302.461030	-12.770813	588.514485	-334.038781	50.320935	422.301039	-398.335573	268.982079	692.483544	-427.792591	212.294150	630.031071	-408.477741	126.248534	603.916387	-398.906467	230.193505	608.197892	-381.037263	122.195247	371.903981	-343.400322	-217.791756	833.757315	-213.454534	-104.011864	80.519562	-418.329167	-103.981840	80.403877	-18.289398	
1251	6.2550	629.638528	1265.086183	-28.911808	587.436192	1320.542947	-377.061792	619.263095	1339.492262	-203.637023	602.380020	1196.150206	-215.406033	476.802375	1050.670626	62.839829	615.909883	911.812220	-29.900874	491.584537	1082.124932	-493.882039	619.091666	913.115597	-431.410677	93.678172	1153.319738	-149.693537	228.257073	1174.007488	-331.698788	296.737169	1139.767573	-39.721099	249.874462	1082.221941	-313.362448	284.311700	1051.614354	-64.014091	148.726256	1197.730483	-98.017725	135.656439	1218.294792	-207.970902	190.276203	1024.537696	8.127504	121.075156	1051.652622	-365.837501	241.491301	893.142023	8.352777	288.936560	824.654411	-22.374515	294.554184	741.041092	-40.651583	320.658758	840.941699	-34.718719	338.345951	648.865823	-74.819920	305.928274	647.098343	-182.959172	280.230668	550.558266	-31.770921	277.069912	462.787529	-46.491100	233.283449	388.188697	-45.828496	303.283221	458.281024	-74.278433	198.618045	292.581487	-56.526711	214.951999	301.431384	-140.786526	140.043467	281.308239	-101.587522	371.604692	207.294349	-106.683772	287.654013	201.027042	-41.148782	204.917470	949.175515	-400.131723	280.380727	906.933728	-397.049843	305.282208	931.885981	-386.248372	325.640396	831.121527	-403.930868	392.710176	743.488647	-402.557293	393.273321	724.649950	-281.549129	50.317947	576.714377	-381.593708	67.279454	565.189302	-301.653252	-6.345126	595.480116	-334.180405	57.145786	429.408296	-398.698293	276.579427	698.083090	-428.232259	219.250113	636.302368	-408.997660	132.979009	610.970422	-399.319022	237.011883	614.156340	-381.770763	128.676213	378.854004	-343.336819	-217.801142	833.752756	-213.408497	-104.015155	80.528165	-418.332508	-103.969597	80.398467	-18.289916	
1252	6.2600	630.745560	1264.227719	-31.684895	585.886611	1321.824878	-379.391365	618.381143	1340.129541	-205.288371	602.229105	1196.453559	-217.397382	477.494428	1051.323662	61.869635	615.785380	911.267603	-30.180326	491.213691	1082.096936	-494.772792	618.996323	913.176556	-431.515073	94.004167	1149.685426	-147.750698	226.804754	1173.628326	-331.742449	298.133645	1136.737190	-39.357903	249.224245	1081.020716	-313.100563	286.020955	1048.740281	-63.910406	149.743268	1194.522843	-95.424844	135.489748	1215.809708	-205.570249	190.525660	1021.257659	9.919440	121.814622	1048.652315	-365.060514	239.176681	889.240286	9.587743	285.253530	819.873603	-21.253227	289.111086	736.130507	-39.734794	317.374876	835.446729	-33.494249	331.400948	642.902386	-73.881873	298.553695	641.416995	-181.707021	274.842887	543.935458	-31.373885	271.697196	456.411017	-46.367012	228.390587	381.476659	-45.550034	297.497550	452.223320	-74.536166	193.645121	287.000519	-56.059693	209.827911	295.299317	-140.393161	135.033280	276.771913	-101.142357	365.556328	199.172314	-106.622085	281.559928	194.151483	-41.122118	208.384290	948.728033	-399.544426	285.230309	909.095476	-396.809054	309.331029	934.630031	-385.480539	332.913636	834.739033	-404.464813	400.347220	748.975248	-402.886924	401.228811	728.762324	-282.084885	57.185463	583.339959	-381.961964	73.839446	571.604276	-301.953571	0.400546	602.181869	-334.488948	64.045456	436.101741	-398.740228	284.297371	703.812286	-428.548133	226.387809	642.572945	-409.433569	139.932003	617.859029	-399.699088	244.097083	620.009770	-382.436694	135.629725	385.641519	-343.423793	-217.788246	833.753456	-213.419102	-103.981572	80.552035	-418.335888	-103.980887	80.400996	-18.283432	
1253	6.2650	631.876443	1263.702768	-34.611994	584.570868	1323.052185	-381.580665	617.502244	1340.582122	-206.782201	602.032892	1196.791200	-219.512660	478.325731	1051.901568	60.840900	615.950739	910.759167	-30.483636	490.800195	1082.051380	-495.657980	618.947180	913.284843	-431.751128	94.410933	1146.315504	-147.487633	224.692094	1172.618065	-330.348775	299.762026	1133.921428	-39.147447	248.536389	1079.573427	-312.828958	287.583543	1046.191769	-63.687699	150.887138	1191.510468	-93.087031	136.062449	1213.950570	-204.057292	190.553556	1018.231340	10.892379	122.446343	1045.777024	-364.238400	236.920202	885.539204	10.893436	281.514767	815.250936	-20.032338	283.486795	731.527204	-38.548531	314.031391	830.022326	-32.146677	324.158133	637.268868	-72.497016	290.902479	635.932095	-180.263410	268.979209	537.510796	-30.769004	266.251641	450.052230	-46.284650	223.248872	374.919772	-45.131884	291.220338	446.110567	-75.210766	188.364671	281.620275	-55.509690	203.995716	289.750588	-139.962151	129.734820	272.447619	-100.568588	359.034556	191.228084	-106.687373	274.996820	187.610500	-41.051670	211.933930	948.905813	-399.110680	289.962630	911.382884	-396.412245	313.213859	937.588795	-384.874434	339.941818	838.793236	-404.982146	407.743678	754.756052	-403.191894	409.516518	733.041094	-282.496185	64.268036	589.590009	-382.264498	81.054774	577.947260	-302.243623	7.491725	608.450946	-334.737093	71.347822	442.457002	-398.838004	292.102352	709.581505	-428.849761	233.020611	648.152469	-409.175776	147.532312	624.811904	-400.359028	251.186897	625.629682	-383.141970	143.701410	392.713966	-344.610796	-217.783156	833.753136	-213.404110	-104.001761	80.529049	-418.335470	-103.983468	80.382624	-18.286208	
